<svg width="54" height="54" viewBox="0 0 54 54" fill="none" xmlns="http://www.w3.org/2000/svg">
<g clip-path="url(#clip0_189_326)">
<path d="M54.1249 15.925L47.6666 19.4771L41.2083 25.6125V46.6667H50.2499C52.3902 46.6667 54.1249 44.932 54.1249 42.7917V15.925Z" fill="#4CAF50"/>
<path d="M-0.125 15.925L4.54308 18.1338L12.7917 25.6125V46.6667H3.75C1.60971 46.6667 -0.125 44.932 -0.125 42.7917V15.925Z" fill="#1E88E5"/>
<path d="M41.2083 9.46655L27 20.1228L12.7917 9.46655L11.5 16.9582L12.7917 25.6124L27 36.2686L41.2083 25.6124L42.5 16.9582L41.2083 9.46655Z" fill="#E53935"/>
<path d="M-0.125 10.8848V15.9249L12.7917 25.6124V9.46658L8.7565 6.44279C7.7955 5.72204 6.62783 5.33325 5.42658 5.33325C2.36017 5.33325 -0.125 7.81842 -0.125 10.8848Z" fill="#C62828"/>
<path d="M54.1249 10.8848V15.9249L41.2083 25.6124V9.46658L45.2434 6.44279C46.2044 5.72204 47.3721 5.33325 48.5733 5.33325C51.6398 5.33325 54.1249 7.81842 54.1249 10.8848Z" fill="#FBC02D"/>
</g>
<defs>
<clipPath id="clip0_189_326">
<rect width="54" height="54" fill="white"/>
</clipPath>
</defs>
</svg>
